<svg width="23" height="19" viewBox="0 0 23 19" fill="none" xmlns="http://www.w3.org/2000/svg">
<path d="M7.18272 18.5587C15.8016 18.5587 20.5158 11.418 20.5158 5.22561C20.5158 5.02279 20.5158 4.82089 20.5021 4.61989C21.4192 3.95654 22.2109 3.13518 22.84 2.19429C21.9848 2.57325 21.0775 2.82177 20.1485 2.93156C21.1268 2.34593 21.8589 1.42483 22.2087 0.339677C21.2889 0.885512 20.2825 1.27019 19.2331 1.47711C18.5266 0.725841 17.5922 0.228371 16.5744 0.0616801C15.5567 -0.105011 14.5124 0.0683706 13.6031 0.554994C12.6938 1.04162 11.9703 1.81435 11.5444 2.75363C11.1186 3.6929 11.0142 4.74634 11.2473 5.75093C9.38427 5.65753 7.56168 5.17338 5.89787 4.32991C4.23406 3.48643 2.76623 2.3025 1.58966 0.854947C0.990426 1.88655 0.806892 3.10776 1.07643 4.26993C1.34597 5.4321 2.04831 6.44785 3.04046 7.11037C2.29473 7.08826 1.56525 6.8871 0.9136 6.52384C0.9136 6.54302 0.9136 6.56312 0.9136 6.58322C0.913896 7.66512 1.28841 8.71362 1.97363 9.55087C2.65885 10.3881 3.61258 10.9626 4.67306 11.1768C3.98318 11.3649 3.25934 11.3925 2.55717 11.2572C2.85661 12.1883 3.43958 13.0026 4.22455 13.586C5.00952 14.1695 5.95723 14.4931 6.93514 14.5114C5.2758 15.8155 3.22598 16.5235 1.11551 16.5214C0.742669 16.5206 0.370194 16.4981 0 16.4538C2.14297 17.829 4.63644 18.5584 7.18272 18.555" fill="white"/>
</svg>
