<svg width="26" height="26" viewBox="0 0 26 26" fill="none" xmlns="http://www.w3.org/2000/svg">
<path fill-rule="evenodd" clip-rule="evenodd" d="M21.6222 4.34209C19.3418 2.05902 16.309 0.801144 13.0781 0.799805C6.42051 0.799805 1.00219 6.21797 0.999508 12.8774C0.998615 15.0062 1.55473 17.0842 2.61176 18.9159L0.898193 25.1748L7.30124 23.4952C9.06555 24.4576 11.0518 24.9647 13.0732 24.9653H13.0783C19.7351 24.9653 25.154 19.5467 25.1566 12.887C25.1579 9.65954 23.9027 6.62502 21.6222 4.34209ZM13.0781 22.9255H13.0739C11.2726 22.9248 9.50592 22.4406 7.96433 21.5261L7.5979 21.3085L3.79823 22.3053L4.81242 18.6007L4.57364 18.2208C3.56867 16.6224 3.038 14.775 3.03889 12.8781C3.04097 7.343 7.54464 2.83978 13.0821 2.83978C15.7636 2.84067 18.2843 3.88625 20.1797 5.78385C22.075 7.68146 23.1182 10.2038 23.1173 12.8863C23.1149 18.4218 18.6116 22.9255 13.0781 22.9255ZM18.5848 15.4067C18.2831 15.2555 16.7992 14.5256 16.5225 14.4247C16.2461 14.324 16.0446 14.2739 15.8437 14.5759C15.6424 14.8779 15.0641 15.5578 14.8879 15.7591C14.7118 15.9605 14.5359 15.9858 14.2341 15.8347C13.9322 15.6837 12.9598 15.3648 11.807 14.3367C10.9099 13.5364 10.3042 12.5481 10.1281 12.2461C9.95224 11.9438 10.1266 11.7962 10.2605 11.6302C10.5872 11.2245 10.9144 10.7991 11.0149 10.5979C11.1156 10.3964 11.0652 10.2201 10.9896 10.0691C10.9144 9.91811 10.3108 8.43261 10.0594 7.82815C9.81417 7.2399 9.56557 7.31934 9.3802 7.31012C9.20435 7.30134 9.00306 7.29956 8.80177 7.29956C8.60063 7.29956 8.27363 7.37498 7.99691 7.67729C7.72034 7.97945 6.94077 8.70948 6.94077 10.195C6.94077 11.6805 8.0222 13.1155 8.17306 13.317C8.32391 13.5184 10.3013 16.5668 13.3286 17.8739C14.0487 18.1851 14.6108 18.3707 15.0492 18.5098C15.7722 18.7395 16.43 18.707 16.9501 18.6294C17.53 18.5426 18.7355 17.8992 18.9872 17.1943C19.2387 16.4893 19.2387 15.8851 19.1631 15.7591C19.0878 15.6332 18.8865 15.5578 18.5848 15.4067Z" fill="white"/>
</svg>
